<svg xmlns="http://www.w3.org/2000/svg" viewBox="0 0 1100 720" role="img"><style>
.draw{stroke-dasharray:1800;stroke-dashoffset:1800;animation:draw 2.15s cubic-bezier(.22,1,.36,1) .18s forwards}.draw-slow{stroke-dasharray:2400;stroke-dashoffset:2400;animation:draw 2.8s cubic-bezier(.22,1,.36,1) .35s forwards}.mark{opacity:0;animation:appear .65s ease forwards}.d1{animation-delay:.45s}.d2{animation-delay:.75s}.d3{animation-delay:1.05s}.note{opacity:0;animation:appear .9s ease 1.15s forwards}@keyframes draw{to{stroke-dashoffset:0}}@keyframes appear{to{opacity:1}}@media(prefers-reduced-motion:reduce){.draw,.draw-slow{stroke-dashoffset:0;animation:none}.mark,.note{opacity:1;animation:none}}</style><rect width="1100" height="720" fill="#ece9e1"/>
<g class="draw-slow" fill="none" stroke="#aaa69d" stroke-width="1.15"><path d="M160 200 L410 300 L650 180 L900 450 L590 510 L260 535 L160 200"/><path d="M410 300 L590 510"/><path d="M650 180 L900 450"/></g><g class="draw" fill="none" stroke="#6c7b72" stroke-width="1.35"><circle cx="410" cy="300" r="96"/><circle cx="590" cy="510" r="58"/><path d="M650 180 C760 230 820 300 900 450" stroke-dasharray="4 11"/></g>
<g class="mark d1" fill="#171717"><circle cx="160" cy="200" r="8"/><circle cx="410" cy="300" r="11"/><circle cx="650" cy="180" r="7"/><circle cx="590" cy="510" r="9"/><circle cx="900" cy="450" r="8"/><circle cx="260" cy="535" r="6"/></g><circle class="mark d2" cx="747" cy="303" r="14" fill="#6c7b72"/>
<g class="note" font-family="DM Sans,Arial" fill="#77736b"><text x="76" y="78" font-size="12" letter-spacing="2.4"></text><text x="76" y="112" font-family="Instrument Serif,Georgia" font-size="30">Trust leaves patterns.</text></g></svg>